<svg width="222" height="100" viewBox="0 0 222 100" fill="none" xmlns="http://www.w3.org/2000/svg">
<path d="M68.7812 34.5781C58.9375 22.5078 54.5859 12.2422 52.0938 6.11719C51.3047 4.1875 48.6875 4.1875 47.9062 6.11719C45.4141 12.2422 41.0625 22.5078 31.2187 34.5781C25.0547 42.1406 18.9766 53.2109 18.9766 64.1172C18.9766 82.7266 32.4062 95.3281 50 95.3281C67.5938 95.3281 81.0234 82.7188 81.0234 64.1172C81.0234 52.7812 74.9453 42.1406 68.7812 34.5781Z" fill="#E5322E"/>
<path d="M58.5781 62.375C63.5391 52.9375 62.8359 43.7031 66.7578 45.3672C72.0859 47.6406 77.9844 59.3203 75.7734 69.9063C74.1953 77.4531 69.1016 82.0234 62.6094 79.8437C57.3672 78.0859 54.1094 70.875 58.5781 62.375Z" fill="#FF6050"/>
<path d="M128.728 60V42.12H131.992V57.12H139.648V60H128.728ZM141.495 60V46.944H144.639V60H141.495ZM141.495 45.48V42.12H144.639V45.48H141.495ZM149.054 60V49.752H146.75V46.944H149.054V46.512C149.054 45.52 149.254 44.68 149.654 43.992C150.07 43.288 150.646 42.752 151.382 42.384C152.118 42.016 152.99 41.832 153.998 41.832C154.19 41.832 154.398 41.848 154.622 41.88C154.862 41.896 155.062 41.92 155.222 41.952V44.664C155.062 44.632 154.91 44.616 154.766 44.616C154.638 44.6 154.518 44.592 154.406 44.592C153.702 44.592 153.158 44.752 152.774 45.072C152.39 45.376 152.198 45.856 152.198 46.512V46.944H155.102V49.752H152.198V60H149.054ZM163.109 60.288C161.765 60.288 160.589 59.984 159.581 59.376C158.573 58.768 157.789 57.944 157.229 56.904C156.669 55.864 156.389 54.712 156.389 53.448C156.389 52.136 156.669 50.976 157.229 49.968C157.805 48.944 158.581 48.136 159.557 47.544C160.549 46.952 161.653 46.656 162.869 46.656C163.893 46.656 164.789 46.824 165.557 47.16C166.341 47.496 167.005 47.96 167.549 48.552C168.093 49.144 168.509 49.824 168.797 50.592C169.085 51.344 169.229 52.16 169.229 53.04C169.229 53.264 169.213 53.496 169.181 53.736C169.165 53.976 169.125 54.184 169.061 54.36H158.981V51.96H167.285L165.797 53.088C165.941 52.352 165.901 51.696 165.677 51.12C165.469 50.544 165.117 50.088 164.621 49.752C164.141 49.416 163.557 49.248 162.869 49.248C162.213 49.248 161.629 49.416 161.117 49.752C160.605 50.072 160.213 50.552 159.941 51.192C159.685 51.816 159.589 52.576 159.653 53.472C159.589 54.272 159.693 54.984 159.965 55.608C160.253 56.216 160.669 56.688 161.213 57.024C161.773 57.36 162.413 57.528 163.133 57.528C163.853 57.528 164.461 57.376 164.957 57.072C165.469 56.768 165.869 56.36 166.157 55.848L168.701 57.096C168.445 57.72 168.045 58.272 167.501 58.752C166.957 59.232 166.309 59.608 165.557 59.88C164.821 60.152 164.005 60.288 163.109 60.288ZM171.876 60V42.12H183.804V45H175.14V49.944H182.724V52.824H175.14V60H171.876ZM185.675 60V46.944H188.819V60H185.675ZM185.675 45.48V42.12H188.819V45.48H185.675ZM191.722 60V46.944H194.674V49.848L194.434 49.416C194.738 48.44 195.21 47.76 195.85 47.376C196.506 46.992 197.29 46.8 198.202 46.8H198.97V49.584H197.842C196.946 49.584 196.226 49.864 195.682 50.424C195.138 50.968 194.866 51.736 194.866 52.728V60H191.722ZM205.666 60.288C204.274 60.288 203.058 59.96 202.018 59.304C200.994 58.632 200.29 57.728 199.906 56.592L202.258 55.464C202.594 56.2 203.058 56.776 203.65 57.192C204.258 57.608 204.93 57.816 205.666 57.816C206.242 57.816 206.698 57.688 207.034 57.432C207.37 57.176 207.538 56.84 207.538 56.424C207.538 56.168 207.466 55.96 207.322 55.8C207.194 55.624 207.01 55.48 206.77 55.368C206.546 55.24 206.298 55.136 206.026 55.056L203.89 54.456C202.786 54.136 201.946 53.648 201.37 52.992C200.81 52.336 200.53 51.56 200.53 50.664C200.53 49.864 200.73 49.168 201.13 48.576C201.546 47.968 202.114 47.496 202.834 47.16C203.57 46.824 204.41 46.656 205.354 46.656C206.586 46.656 207.674 46.952 208.618 47.544C209.562 48.136 210.234 48.968 210.634 50.04L208.234 51.168C208.01 50.576 207.634 50.104 207.106 49.752C206.578 49.4 205.986 49.224 205.33 49.224C204.802 49.224 204.386 49.344 204.082 49.584C203.778 49.824 203.626 50.136 203.626 50.52C203.626 50.76 203.69 50.968 203.818 51.144C203.946 51.32 204.122 51.464 204.346 51.576C204.586 51.688 204.858 51.792 205.162 51.888L207.25 52.512C208.322 52.832 209.146 53.312 209.722 53.952C210.314 54.592 210.61 55.376 210.61 56.304C210.61 57.088 210.402 57.784 209.986 58.392C209.57 58.984 208.994 59.448 208.258 59.784C207.522 60.12 206.658 60.288 205.666 60.288ZM218.979 60.144C217.507 60.144 216.363 59.744 215.547 58.944C214.747 58.128 214.347 56.984 214.347 55.512V49.752H212.091V46.944H212.331C212.971 46.944 213.467 46.776 213.819 46.44C214.171 46.104 214.347 45.616 214.347 44.976V43.968H217.491V46.944H220.491V49.752H217.491V55.344C217.491 55.776 217.563 56.144 217.707 56.448C217.867 56.752 218.107 56.984 218.427 57.144C218.763 57.304 219.187 57.384 219.699 57.384C219.811 57.384 219.939 57.376 220.083 57.36C220.243 57.344 220.395 57.328 220.539 57.312V60C220.315 60.032 220.059 60.064 219.771 60.096C219.483 60.128 219.219 60.144 218.979 60.144Z" fill="#C40000"/>
</svg>
